<svg width="33" height="32" viewBox="0 0 33 32" fill="none" xmlns="http://www.w3.org/2000/svg">
<g clip-path="url(#clip0_321_382)">
<path d="M5.24286 9.04776C4.96195 9.66 4.72924 10.2932 4.54686 10.9417C4.65688 11.3195 4.66395 11.7199 4.56735 12.1014C4.54864 12.1958 4.51756 12.2873 4.47492 12.3736C4.46869 12.3866 4.45998 12.3984 4.44926 12.4081C4.43896 12.4187 4.42663 12.4271 4.41301 12.4328C4.34868 12.4624 4.28105 12.4841 4.21155 12.4976C4.11619 13.1236 4.068 13.7558 4.06738 14.3889C4.06738 14.4748 4.0692 14.5605 4.07101 14.6464C4.35685 15.0441 4.50721 15.5231 4.49987 16.0128C4.50443 16.1146 4.49543 16.2166 4.4731 16.316C4.47037 16.3281 4.46566 16.3397 4.45916 16.3503C4.45047 16.3661 4.43832 16.3798 4.42361 16.3902C4.37098 16.432 4.31378 16.4676 4.25309 16.4964C4.38459 17.2427 4.58401 17.9754 4.84885 18.6854C5.21119 19.0605 5.44403 19.5418 5.51334 20.0587C5.52129 20.1128 5.52631 20.1563 5.53007 20.1969C5.80092 20.7056 6.10696 21.1947 6.44594 21.6608C6.93854 21.9356 7.31249 22.3823 7.49621 22.9156C7.82793 23.2621 8.18049 23.588 8.55193 23.8916C8.71644 24.0258 8.8845 24.1552 9.05608 24.2799C9.22292 24.2779 9.38934 24.2971 9.55131 24.3372C10.1317 24.5004 10.6263 24.8819 10.9316 25.4018C11.6562 25.7502 12.4145 26.0234 13.1947 26.2174C13.6931 25.8891 14.2413 25.6436 14.8182 25.4903C14.4435 25.4315 14.0672 25.3649 13.693 25.2825C13.4966 25.239 13.3014 25.1897 13.1074 25.1345C12.93 25.222 12.7428 25.2881 12.5497 25.3314L12.4966 25.3329L12.4321 25.3229L12.3816 25.3052C12.0728 25.1234 11.8065 24.8774 11.6008 24.584C10.7448 24.1965 9.94234 23.7004 9.21321 23.1077C9.12956 23.1174 9.05733 23.1217 9.00631 23.1217L8.95374 23.1128L8.89519 23.0914L8.84918 23.0644C8.58053 22.8264 8.36898 22.531 8.23028 22.2C6.22357 20.0932 5.10043 17.2976 5.09186 14.3881C5.09273 13.547 5.18449 12.7084 5.36555 11.887C5.3282 11.6372 5.34472 11.3823 5.414 11.1394C5.48328 10.8965 5.60372 10.6713 5.76723 10.4788C5.97203 9.89866 6.22141 9.33524 6.51314 8.79359C6.41733 8.54617 6.37693 8.28075 6.39477 8.01603C6.38473 8.00961 6.37609 8.00208 6.36549 7.99581C6.29011 7.95418 6.20539 7.93236 6.11927 7.93237C6.04983 7.93244 5.98112 7.94657 5.91729 7.97391C5.85345 8.00125 5.79581 8.04124 5.74785 8.09145C5.75267 8.2767 5.7345 8.46182 5.69375 8.64259C5.67793 8.73112 5.65016 8.8171 5.61121 8.89816C5.6062 8.90841 5.59961 8.91782 5.5917 8.92604C5.58077 8.93857 5.5672 8.94853 5.55196 8.95518C5.4694 8.99366 5.38218 9.02122 5.29249 9.03716C5.2766 9.0412 5.25931 9.04441 5.24286 9.04776Z" fill="#A50101"/>
<path d="M19.679 26.8484L19.6542 26.8542C19.1151 26.9737 18.5881 27.0596 18.0732 27.1355C18.9945 27.4613 19.6247 28.0091 19.8464 29.1178C19.8743 29.2504 19.9531 29.3669 20.0659 29.442C20.1787 29.5172 20.3166 29.545 20.4497 29.5196C20.5829 29.4929 20.7 29.4144 20.7753 29.3014C20.8506 29.1884 20.878 29.0501 20.8514 28.9169C20.6601 27.9583 20.2439 27.3071 19.679 26.8484Z" fill="#A50101"/>
<path d="M22.067 25.4014C22.3723 24.8815 22.8669 24.5 23.4473 24.3368C23.6092 24.2967 23.7756 24.2775 23.9424 24.2795C24.1137 24.1545 24.2817 24.025 24.4465 23.8912C24.818 23.5876 25.1706 23.2617 25.5024 22.9152C25.6861 22.3819 26.0601 21.9351 26.5527 21.6604C26.8917 21.1943 27.1978 20.7052 27.4687 20.1965C27.4724 20.1574 27.4773 20.1145 27.485 20.0619C27.5537 19.5437 27.7868 19.0612 28.1499 18.6853C28.4147 17.9753 28.6142 17.2426 28.7457 16.4963C28.6849 16.4675 28.6277 16.4318 28.575 16.3899C28.5619 16.3806 28.5508 16.3687 28.5425 16.3549C28.5331 16.3409 28.5267 16.3251 28.5238 16.3085C28.5032 16.2104 28.4948 16.1101 28.4989 16.0099C28.4921 15.5212 28.6424 15.0432 28.9277 14.6463C28.9296 14.5606 28.9314 14.4747 28.9314 14.3888C28.9308 13.7557 28.8826 13.1234 28.7872 12.4975C28.7177 12.484 28.6501 12.4623 28.5857 12.4327C28.5721 12.427 28.5597 12.4186 28.5493 12.408C28.5387 12.3982 28.53 12.3865 28.5237 12.3734C28.481 12.2872 28.45 12.1957 28.4313 12.1013C28.3346 11.7198 28.3417 11.3194 28.4518 10.9416C28.2694 10.2931 28.0366 9.65989 27.7558 9.04764C27.7393 9.0443 27.7215 9.04109 27.7063 9.03774C27.6166 9.0218 27.5294 8.99424 27.4468 8.95576C27.4316 8.94911 27.418 8.93915 27.4071 8.92662C27.3991 8.9184 27.3926 8.90899 27.3875 8.89874C27.3486 8.81768 27.3208 8.7317 27.305 8.64317C27.2644 8.46304 27.2462 8.27858 27.2508 8.09399C27.1888 8.02747 27.11 7.97884 27.0228 7.95317C26.9581 7.9342 26.8903 7.92828 26.8232 7.93575C26.7562 7.94322 26.6914 7.96392 26.6324 7.99667C26.622 8.00239 26.6132 8.01061 26.6031 8.01675C26.621 8.28147 26.5806 8.54689 26.4848 8.79431C26.7765 9.33593 27.0259 9.8993 27.2307 10.4794C27.3942 10.6719 27.5146 10.8971 27.5839 11.14C27.6532 11.3829 27.6697 11.6378 27.6324 11.8875C27.8134 12.709 27.9051 13.5476 27.9059 14.3888C27.8973 17.2982 26.7742 20.0937 24.7676 22.2004C24.6289 22.5314 24.4173 22.8269 24.1486 23.0648L24.1026 23.0919L24.044 23.1132L23.9915 23.1221C23.9404 23.1213 23.8688 23.1171 23.7846 23.1082C23.0551 23.7008 22.2523 24.1969 21.396 24.5842C21.1903 24.8777 20.924 25.1236 20.6152 25.3055L20.5646 25.3232L20.5 25.3332L20.4471 25.3317C20.254 25.2884 20.0668 25.2223 19.8894 25.1348C19.6955 25.1897 19.5003 25.239 19.3038 25.2828C18.6262 25.4331 17.9409 25.5297 17.2784 25.6231C14.9082 25.9577 12.6745 26.2717 12.1454 28.9175C12.1317 28.9837 12.1312 29.0519 12.144 29.1182C12.1568 29.1846 12.1826 29.2478 12.2199 29.3041C12.2572 29.3604 12.3052 29.4089 12.3613 29.4465C12.4174 29.4842 12.4804 29.5105 12.5466 29.5237C12.6129 29.537 12.6811 29.537 12.7474 29.5238C12.8136 29.5106 12.8766 29.4844 12.9327 29.4467C12.9888 29.4091 13.0369 29.3607 13.0742 29.3044C13.1116 29.248 13.1374 29.1849 13.1502 29.1186C13.537 27.185 15.1636 26.956 17.415 26.6388C18.0999 26.5423 18.8069 26.4426 19.5256 26.2834C20.4037 26.0876 21.2564 25.7917 22.067 25.4014Z" fill="#A50101"/>
<path d="M6.32364 6.42717C6.31955 6.42481 6.31546 6.42246 6.31152 6.42041L6.31498 6.42293L6.31357 6.42497L6.32364 6.42717Z" fill="#A50101"/>
<path d="M6.27886 6.39373C6.47112 6.33908 7.22693 6.07961 7.45364 5.35503C7.67351 4.65331 7.15792 3.44131 6.95171 3.00171C6.56607 3.3373 5.69314 4.17774 5.6106 4.97496C5.53239 5.7305 6.12396 6.26825 6.27886 6.39373Z" fill="#A50101"/>
<path d="M3.91451 8.50301C4.47123 8.95823 5.18772 8.77168 5.37078 8.71285C5.42976 8.52965 5.61631 7.81343 5.16095 7.25643C4.72609 6.72467 3.51911 6.50174 3.05762 6.43384C3.12356 6.91819 3.33423 8.0287 3.91451 8.50301Z" fill="#A50101"/>
<path d="M5.4234 8.69336C5.4192 8.69523 5.4151 8.69733 5.41113 8.69965L5.41522 8.69808L5.41632 8.70044L5.4234 8.69336Z" fill="#A50101"/>
<path d="M7.00866 7.25664C6.84247 7.45667 6.73473 7.69869 6.69732 7.95604C6.6599 8.21339 6.69425 8.47607 6.79659 8.71514C7.03567 8.81744 7.29835 8.85177 7.55569 8.81435C7.81303 8.77693 8.05505 8.66922 8.2551 8.50308C8.78491 8.06961 9.03294 6.84897 9.11171 6.37061C8.63935 6.45844 7.4417 6.72697 7.00866 7.25664Z" fill="#A50101"/>
<path d="M2.65961 11.9289C3.24923 12.4308 4.04241 12.2435 4.23593 12.1867C4.30076 11.9954 4.52063 11.2108 4.04283 10.6011C3.57967 10.0103 2.26295 9.7443 1.77832 9.66455C1.83674 10.179 2.03723 11.3991 2.65961 11.9289Z" fill="#A50101"/>
<path d="M4.2875 12.1685C4.28326 12.1703 4.27917 12.1725 4.27539 12.1746L4.27948 12.1732L4.28042 12.1754L4.2875 12.1685Z" fill="#A50101"/>
<path d="M7.33949 12.0244C7.92771 11.5633 8.22162 10.2314 8.31406 9.72876C7.81436 9.81004 6.49598 10.0729 6.01176 10.6411C5.82703 10.8547 5.70496 11.1152 5.65905 11.3938C5.61313 11.6724 5.64516 11.9583 5.7516 12.2198C6.00855 12.3369 6.29287 12.3806 6.57312 12.3461C6.85336 12.3116 7.1186 12.2003 7.33949 12.0244Z" fill="#A50101"/>
<path d="M2.46921 16.3284C3.22684 16.7082 4.01584 16.2969 4.19695 16.1901C4.21619 15.9809 4.25202 15.0917 3.58502 14.5686C2.94186 14.0641 1.47373 14.1294 0.958008 14.17C1.14707 14.6857 1.67269 15.9288 2.46921 16.3284Z" fill="#A50101"/>
<path d="M4.23796 16.1699L4.24416 16.1602C4.23992 16.1636 4.23601 16.1668 4.23242 16.1703L4.23617 16.1678L4.23796 16.1699Z" fill="#A50101"/>
<path d="M5.77124 15.8398C6.07215 15.8975 6.38315 15.8706 6.66968 15.7621C6.95622 15.6536 7.20708 15.4678 7.3944 15.2254C7.89744 14.5841 7.85757 13.0922 7.8248 12.5552C7.33389 12.7631 5.99961 13.382 5.6346 14.1096C5.49519 14.3824 5.43415 14.6886 5.45827 14.994C5.48239 15.2995 5.59073 15.5923 5.77124 15.8398Z" fill="#A50101"/>
<path d="M5.24152 20.3019C5.23065 20.0834 5.13417 19.1176 4.32928 18.6589C3.55548 18.2176 1.97958 18.5283 1.4502 18.6508C1.72765 19.1628 2.48973 20.4233 3.4109 20.7264C4.2915 21.0163 5.07226 20.44 5.24152 20.3019Z" fill="#A50101"/>
<path d="M5.27781 20.2757L5.28253 20.2651C5.27875 20.2691 5.27545 20.2728 5.27246 20.2768L5.27576 20.2738L5.27781 20.2757Z" fill="#A50101"/>
<path d="M6.84704 19.6869C7.17863 19.7011 7.50766 19.6231 7.79763 19.4616C8.0876 19.3001 8.32715 19.0615 8.48972 18.7721C8.92904 18.0015 8.64309 16.395 8.52485 15.8413C8.04538 16.1324 6.69939 17.0112 6.42208 17.8536C6.31602 18.1682 6.29939 18.506 6.37403 18.8295C6.44867 19.153 6.61164 19.4494 6.84481 19.6858L6.84704 19.6869Z" fill="#A50101"/>
<path d="M6.25827 21.8915C5.38436 21.4707 3.69288 21.9321 3.14746 22.0998C3.4772 22.6215 4.39641 23.9384 5.4188 24.1983C6.3995 24.447 7.20063 23.7573 7.36543 23.6008C7.34005 23.3754 7.17037 22.3313 6.25827 21.8915Z" fill="#A50101"/>
<path d="M7.39906 23.5733L7.40331 23.5618C7.39981 23.5659 7.39656 23.5702 7.39355 23.5747L7.3967 23.5712L7.39906 23.5733Z" fill="#A50101"/>
<path d="M9.02145 22.8267L9.02787 22.8289C9.38713 22.8203 9.73693 22.712 10.0382 22.5161C10.3395 22.3203 10.5805 22.0445 10.7341 21.7197C11.1534 20.8497 10.7153 19.1221 10.5511 18.5503C10.0689 18.8895 8.66551 19.9445 8.42751 20.8802C8.33649 21.2278 8.34383 21.5939 8.4487 21.9376C8.55358 22.2813 8.75187 22.5891 9.02145 22.8267Z" fill="#A50101"/>
<path d="M10.9919 26.1293L10.9945 26.1308L10.9964 26.1184C10.9937 26.1235 10.9914 26.1285 10.9893 26.1332L10.9919 26.1293Z" fill="#A50101"/>
<path d="M9.47684 24.6202C8.48513 24.3609 6.82404 25.1887 6.30469 25.468C6.74471 25.9341 7.96466 27.1159 9.0767 27.1773C10.1489 27.2342 10.8334 26.3535 10.9673 26.1633C10.8978 25.9408 10.5143 24.8909 9.47684 24.6202Z" fill="#A50101"/>
<path d="M12.5052 25.0377L12.5149 25.0393C12.8844 24.9577 13.224 24.775 13.4957 24.5115C13.7673 24.2481 13.9603 23.9143 14.0532 23.5474C14.3111 22.5591 13.5004 20.8556 13.2196 20.3093C12.7981 20.7486 11.5525 22.1285 11.4962 23.1473C11.4726 23.5249 11.5545 23.9017 11.7326 24.2356C11.9108 24.5694 12.1783 24.8471 12.5052 25.0377Z" fill="#A50101"/>
<path d="M26.7762 6.4065C26.7714 6.40569 26.7666 6.4052 26.7617 6.40503L26.7661 6.40584V6.40861L26.7762 6.4065Z" fill="#A50101"/>
<path d="M26.7205 6.39373C26.8755 6.26755 27.4669 5.73008 27.3887 4.9751C27.3062 4.1776 26.4333 3.33716 26.0476 3.00171C25.8414 3.44131 25.3258 4.65331 25.5457 5.35503C25.7724 6.08003 26.5282 6.3395 26.7205 6.39373Z" fill="#A50101"/>
<path d="M29.0854 8.50319C29.6657 8.02915 29.8763 6.91837 29.9423 6.43457C29.4808 6.50205 28.2738 6.72499 27.839 7.25717C27.3836 7.81416 27.57 8.53038 27.6291 8.71358C27.8122 8.772 28.5287 8.95841 29.0854 8.50319Z" fill="#A50101"/>
<path d="M27.6489 8.76499C27.647 8.76092 27.6449 8.75717 27.6429 8.75342L27.6445 8.75782L27.6426 8.75863L27.6489 8.76499Z" fill="#A50101"/>
<path d="M24.744 8.50319C24.9441 8.66936 25.1861 8.77709 25.4434 8.8145C25.7008 8.85192 25.9635 8.81757 26.2025 8.71525C26.3049 8.47619 26.3393 8.21351 26.3019 7.95616C26.2645 7.69881 26.1568 7.45678 25.9906 7.25674C25.5571 6.72694 24.3594 6.45827 23.8877 6.37085C23.9665 6.84935 24.2145 8.07028 24.744 8.50319Z" fill="#A50101"/>
<path d="M28.7838 12.2384C28.7817 12.2342 28.7794 12.2303 28.7772 12.2263L28.7787 12.2304L28.7764 12.2315L28.7838 12.2384Z" fill="#A50101"/>
<path d="M28.9564 10.6011C28.4786 11.2105 28.6985 11.9953 28.7633 12.1867C28.9568 12.2436 29.7499 12.4314 30.3396 11.9289C30.9616 11.3991 31.1622 10.1792 31.2209 9.66455C30.7361 9.74458 29.419 10.0109 28.9564 10.6011Z" fill="#A50101"/>
<path d="M24.6855 9.72852C24.778 10.2311 25.0724 11.5636 25.66 12.0243C25.8809 12.2002 26.1461 12.3116 26.4264 12.346C26.7067 12.3805 26.9911 12.3367 27.248 12.2194C27.3544 11.9579 27.3865 11.672 27.3406 11.3934C27.2946 11.1148 27.1726 10.8543 26.9878 10.6408C26.5031 10.0722 25.1852 9.80952 24.6855 9.72852Z" fill="#A50101"/>
<path d="M28.8027 16.1905C28.984 16.2972 29.7731 16.7089 30.5303 16.3287C31.3269 15.9291 31.8525 14.686 32.0415 14.1704C31.5257 14.13 30.0578 14.0646 29.4145 14.569C28.7478 15.0918 28.7835 15.9809 28.8027 16.1905Z" fill="#A50101"/>
<path d="M28.811 16.2452C28.8099 16.2405 28.8086 16.2361 28.8072 16.2317V16.2359H28.8047L28.811 16.2452Z" fill="#A50101"/>
<path d="M27.2279 15.8398C27.4084 15.5923 27.5167 15.2995 27.5409 14.994C27.565 14.6886 27.504 14.3824 27.3646 14.1096C26.9995 13.382 25.6653 12.7631 25.1744 12.5552C25.1419 13.0922 25.1023 14.5848 25.6048 15.2254C25.7921 15.4679 26.0429 15.6537 26.3295 15.7621C26.616 15.8706 26.927 15.8975 27.2279 15.8398Z" fill="#A50101"/>
<path d="M28.6701 18.6588C27.8647 19.1177 27.7687 20.0834 27.7578 20.3017C27.9269 20.44 28.708 21.0164 29.5884 20.7261C30.5096 20.423 31.2717 19.1625 31.5491 18.6505C31.0193 18.528 29.4437 18.2168 28.6701 18.6588Z" fill="#A50101"/>
<path d="M27.7586 20.357C27.7586 20.3517 27.7576 20.3467 27.7568 20.3418V20.3462H27.7539L27.7586 20.357Z" fill="#A50101"/>
<path d="M24.4754 15.8413C24.3578 16.395 24.071 18.0015 24.5105 18.7721C24.6728 19.0617 24.9123 19.3005 25.2024 19.462C25.4924 19.6235 25.8215 19.7013 26.1532 19.6869L26.1554 19.6859C26.3886 19.4496 26.5515 19.1532 26.6262 18.8297C26.7008 18.5062 26.6842 18.1683 26.5781 17.8537C26.3007 17.0111 24.9545 16.1323 24.4754 15.8413Z" fill="#A50101"/>
<path d="M25.6279 23.6444L25.6319 23.6553C25.6319 23.65 25.6319 23.6448 25.631 23.6401V23.6447L25.6279 23.6444Z" fill="#A50101"/>
<path d="M26.7409 21.8915C25.8288 22.3311 25.6594 23.375 25.6338 23.6007C25.7986 23.7571 26.5997 24.4471 27.5804 24.1983C28.6028 23.9384 29.522 22.6215 29.8518 22.1C29.3056 21.9321 27.614 21.4707 26.7409 21.8915Z" fill="#A50101"/>
<path d="M23.972 22.8288L23.9784 22.8266C24.2482 22.5891 24.4466 22.2812 24.5516 21.9374C24.6566 21.5936 24.6639 21.2274 24.5729 20.8797C24.3347 19.9431 22.9313 18.8889 22.4493 18.5498C22.2851 19.1214 21.847 20.8492 22.2664 21.7192C22.4199 22.044 22.6607 22.3198 22.9619 22.5157C23.2631 22.7117 23.6128 22.8201 23.972 22.8288Z" fill="#A50101"/>
<path d="M23.5227 24.6203C22.4854 24.8911 22.1018 25.9412 22.0322 26.1633C22.1664 26.3536 22.8518 27.2333 23.9228 27.1773C25.0346 27.1159 26.2548 25.9343 26.6948 25.468C26.1753 25.189 24.5138 24.3621 23.5227 24.6203Z" fill="#A50101"/>
<path d="M22.0166 26.2043L22.0184 26.2161C22.0194 26.2111 22.0201 26.206 22.0205 26.2009L22.0195 26.2053L22.0166 26.2043Z" fill="#A50101"/>
<path d="M18.9463 23.5479C19.0392 23.9147 19.2322 24.2485 19.5039 24.512C19.7755 24.7754 20.1151 24.9581 20.4846 25.0397L20.4945 25.0382C20.8213 24.8475 21.0886 24.5698 21.2668 24.2361C21.4449 23.9023 21.5268 23.5256 21.5033 23.148C21.4476 22.1284 20.2015 20.7491 19.7801 20.3101C19.4993 20.8562 18.6888 22.5603 18.9463 23.5479Z" fill="#A50101"/>
<path d="M16.5001 7.40747L17.8734 10.1897L20.9445 10.6386L18.7223 12.803L19.2468 15.8608L16.5001 14.4164L13.7534 15.8608L14.2779 12.803L12.0557 10.6386L15.1268 10.1897L16.5001 7.40747Z" fill="#A50101"/>
</g>
<defs>
<clipPath id="clip0_321_382">
<rect width="32" height="32" fill="white" transform="translate(0.5)"/>
</clipPath>
</defs>
</svg>
