<svg width="49" height="30" viewBox="0 0 49 30" fill="none" xmlns="http://www.w3.org/2000/svg">
<path d="M48.9996 15C48.9996 23.2308 42.4411 30 34.2996 30C26.2335 30 19.5996 23.2308 19.5996 15C19.5996 6.76923 26.1581 0 34.2242 0C42.4411 0 48.9996 6.76923 48.9996 15Z" fill="#F9B50B"/>
<path d="M29.3246 15.0769C29.3246 14 29.1738 12.9231 29.0231 11.9231H19.9769C20.0523 11.3846 20.2031 10.9231 20.3538 10.3077H28.42C28.2692 9.76923 28.0431 9.23077 27.8169 8.69231H20.9569C21.1831 8.15385 21.4846 7.69231 21.7862 7.07692H26.9877C26.6862 6.53846 26.3092 6 25.8569 5.46154H22.9923C23.4446 4.92308 23.8969 4.46154 24.5 3.92308C21.9369 1.46154 18.4692 0 14.6246 0C6.63385 0.230769 0 6.76923 0 15C0 23.2308 6.55846 30 14.7 30C18.5446 30 21.9369 28.4615 24.5754 26.0769C25.1031 25.6154 25.5554 25.0769 26.0831 24.4615H23.0677C22.6908 24 22.3138 23.4615 22.0123 22.9231H27.1385C27.44 22.4615 27.7415 21.9231 27.9677 21.3077H21.1077C20.8815 20.8462 20.6554 20.3077 20.5046 19.6923H28.5708C29.0231 18.3077 29.3246 16.7692 29.3246 15.0769Z" fill="#C8191C"/>
<path d="M19.9012 18.8457L20.1273 17.4611C20.052 17.4611 19.9012 17.538 19.7504 17.538C19.2227 17.538 19.1473 17.2303 19.2227 17.0765L19.675 14.3072H20.5043L20.7304 12.7688H19.9766L20.1273 11.8457H18.5443C18.5443 11.8457 17.6396 17.0765 17.6396 17.6919C17.6396 18.6149 18.1673 19.0765 18.9212 19.0765C19.3735 19.0765 19.7504 18.9226 19.9012 18.8457Z" fill="white"/>
<path d="M20.4297 16.308C20.4297 18.5388 21.9374 19.0772 23.1435 19.0772C24.2743 19.0772 24.802 18.8465 24.802 18.8465L25.1035 17.308C25.1035 17.308 24.2743 17.6926 23.4451 17.6926C21.7112 17.6926 22.0128 16.3849 22.0128 16.3849H25.1789C25.1789 16.3849 25.4051 15.3849 25.4051 14.9234C25.4051 13.9234 24.8774 12.6157 23.1435 12.6157C21.6358 12.5388 20.4297 14.308 20.4297 16.308ZM23.1435 14.0003C23.9728 14.0003 23.822 15.0003 23.822 15.0772H22.0881C22.1635 15.0003 22.3143 14.0003 23.1435 14.0003Z" fill="white"/>
<path d="M33.0186 18.8464L33.3201 17.0771C33.3201 17.0771 32.5663 17.4618 31.9632 17.4618C30.9078 17.4618 30.3801 16.6156 30.3801 15.6156C30.3801 13.6925 31.2848 12.6925 32.4155 12.6925C33.1694 12.6925 33.8478 13.1541 33.8478 13.1541L34.074 11.4618C34.074 11.4618 33.1694 11.0771 32.2648 11.0771C30.4555 11.0771 28.7217 12.6925 28.7217 15.6925C28.7217 17.6925 29.6263 19.0002 31.5109 19.0002C32.1894 19.0771 33.0186 18.8464 33.0186 18.8464Z" fill="white"/>
<path d="M11.3834 12.5381C10.328 12.5381 9.49874 12.8458 9.49874 12.8458L9.27259 14.2304C9.27259 14.2304 9.95105 13.9227 11.0064 13.9227C11.5341 13.9227 11.9864 13.9996 11.9864 14.4612C11.9864 14.7689 11.9111 14.8458 11.9111 14.8458H11.2326C9.87567 14.8458 8.44336 15.3842 8.44336 17.2304C8.44336 18.6919 9.34797 18.9996 9.95105 18.9996C11.0064 18.9996 11.5341 18.3073 11.6095 18.3073L11.5341 18.9227H12.8157L13.4187 14.5381C13.4187 12.615 11.9111 12.5381 11.3834 12.5381ZM11.6849 16.0765C11.6849 16.3073 11.5341 17.615 10.6295 17.615C10.1772 17.615 10.0264 17.2304 10.0264 16.9996C10.0264 16.615 10.2526 16.0765 11.4587 16.0765C11.6095 16.0765 11.6849 16.0765 11.6849 16.0765Z" fill="white"/>
<path d="M14.9266 19.0004C15.3035 19.0004 17.2635 19.0773 17.2635 16.9235C17.2635 14.9235 15.3789 15.3081 15.3789 14.5388C15.3789 14.1542 15.6805 14.0004 16.2081 14.0004C16.4343 14.0004 17.2635 14.0773 17.2635 14.0773L17.4897 12.6158C17.4897 12.6158 16.962 12.4619 15.982 12.4619C14.8512 12.4619 13.6451 12.9235 13.6451 14.5388C13.6451 16.385 15.6051 16.2311 15.6051 16.9235C15.6051 17.385 15.0774 17.4619 14.7005 17.4619C14.022 17.4619 13.2681 17.2311 13.2681 17.2311L13.042 18.6927C13.1928 18.8465 13.6451 19.0004 14.9266 19.0004Z" fill="white"/>
<path d="M45.9848 11.3076L45.6833 13.4615C45.6833 13.4615 45.0802 12.6922 44.1756 12.6922C42.7433 12.6922 41.5371 14.4615 41.5371 16.5384C41.5371 17.8461 42.1402 19.1538 43.4971 19.1538C44.4017 19.1538 45.0048 18.5384 45.0048 18.5384L44.9294 19.0768H46.5125L47.6433 11.4615L45.9848 11.3076ZM45.231 15.4615C45.231 16.3076 44.854 17.4615 43.9494 17.4615C43.4217 17.4615 43.1202 16.9999 43.1202 16.1538C43.1202 14.8461 43.6479 14.0768 44.4017 14.0768C44.9294 14.1538 45.231 14.5384 45.231 15.4615Z" fill="white"/>
<path d="M2.86414 18.923L3.76875 13.2307L3.91952 18.923H4.97491L7.01029 13.2307L6.18106 18.923H7.83952L9.12106 11.3076H6.55798L4.97491 15.9999L4.89952 11.3076H2.63798L1.35645 18.923H2.86414Z" fill="white"/>
<path d="M26.9878 18.9232C27.4401 16.3078 27.5154 14.1539 28.6462 14.5385C28.797 13.5385 29.0231 13.077 29.1739 12.6924H28.8724C28.1939 12.6924 27.5908 13.6155 27.5908 13.6155L27.7416 12.7693H26.2339L25.2539 18.9232H26.9878Z" fill="white"/>
<path d="M36.6373 12.5381C35.5819 12.5381 34.7526 12.8458 34.7526 12.8458L34.5265 14.2304C34.5265 14.2304 35.205 13.9227 36.2603 13.9227C36.788 13.9227 37.2403 13.9996 37.2403 14.4612C37.2403 14.7689 37.165 14.8458 37.165 14.8458H36.4865C35.1296 14.8458 33.6973 15.3842 33.6973 17.2304C33.6973 18.6919 34.6019 18.9996 35.205 18.9996C36.2603 18.9996 36.788 18.3073 36.8634 18.3073L36.788 18.9227H38.2203L38.8234 14.5381C38.8234 12.615 37.165 12.5381 36.6373 12.5381ZM37.0142 16.0765C37.0142 16.3073 36.8634 17.615 35.9588 17.615C35.5065 17.615 35.3557 17.2304 35.3557 16.9996C35.3557 16.615 35.5819 16.0765 36.788 16.0765C36.9388 16.0765 36.9388 16.0765 37.0142 16.0765Z" fill="white"/>
<path d="M40.0288 18.9232C40.4811 16.3078 40.5565 14.1539 41.6872 14.5385C41.838 13.5385 42.0642 13.077 42.2149 12.6924H41.9134C41.2349 12.6924 40.6318 13.6155 40.6318 13.6155L40.7826 12.7693H39.2749L38.2949 18.9232H40.0288Z" fill="white"/>
</svg>
