<svg width="21" height="21" viewBox="0 0 21 21" fill="none" xmlns="http://www.w3.org/2000/svg">
<path d="M17.833 8.83325C17.833 14.6666 10.333 19.6666 10.333 19.6666C10.333 19.6666 2.83301 14.6666 2.83301 8.83325C2.83301 6.84413 3.62318 4.93647 5.02971 3.52995C6.43623 2.12343 8.34388 1.33325 10.333 1.33325C12.3221 1.33325 14.2298 2.12343 15.6363 3.52995C17.0428 4.93647 17.833 6.84413 17.833 8.83325Z" fill="#A50101"/>
<path d="M10.333 11.3333C11.7137 11.3333 12.833 10.214 12.833 8.83325C12.833 7.45254 11.7137 6.33325 10.333 6.33325C8.9523 6.33325 7.83301 7.45254 7.83301 8.83325C7.83301 10.214 8.9523 11.3333 10.333 11.3333Z" fill="white"/>
</svg>
