<svg width="54" height="18" viewBox="0 0 54 18" fill="none" xmlns="http://www.w3.org/2000/svg">
<path d="M50.3688 0.256836H46.9741C45.9478 0.256836 45.1583 0.599693 44.6846 1.71398L38.2109 17.7425H42.7899C42.7899 17.7425 43.5794 15.5997 43.7373 15.0854C44.2109 15.0854 48.7109 15.0854 49.3425 15.0854C49.5004 15.6854 49.8951 17.6568 49.8951 17.6568H54.0004L50.3688 0.256836ZM45.0004 11.4854C45.3951 10.4568 46.7373 6.59969 46.7373 6.59969C46.7373 6.68541 47.132 5.57112 47.2899 4.97112L47.6057 6.51398C47.6057 6.51398 48.4741 10.714 48.632 11.5711H45.0004V11.4854Z" fill="#3362AB"/>
<path d="M38.5263 12C38.5263 15.6 35.5263 18 30.8684 18C28.8947 18 26.9999 17.5714 25.9736 17.0571L26.6052 13.1143L27.1578 13.3714C28.5789 14.0571 29.5263 14.3143 31.2631 14.3143C32.5263 14.3143 33.8684 13.8 33.8684 12.6C33.8684 11.8286 33.3157 11.3143 31.5789 10.4571C29.921 9.6 27.7105 8.22857 27.7105 5.74286C27.7105 2.31429 30.7894 0 35.1315 0C36.7894 0 38.2105 0.342857 39.0789 0.771429L38.4473 4.54286L38.1315 4.2C37.3421 3.85714 36.3157 3.51429 34.8157 3.51429C33.1578 3.6 32.3684 4.37143 32.3684 5.05714C32.3684 5.82857 33.3157 6.42857 34.8157 7.2C37.3421 8.48571 38.5263 9.94286 38.5263 12Z" fill="#3362AB"/>
<path d="M0 0.428795L0.0789474 0.0859375H6.86842C7.81579 0.0859375 8.52632 0.428795 8.76316 1.54308L10.2632 9.25737C8.76316 5.14308 5.28947 1.80022 0 0.428795Z" fill="#F9B50B"/>
<path d="M19.8155 0.257589L12.9471 17.6576H8.28917L4.3418 3.08616C7.1839 5.05759 9.55232 8.1433 10.4207 10.2862L10.8944 12.0862L15.1576 0.171875H19.8155V0.257589Z" fill="#3362AB"/>
<path d="M21.6313 0.171875H25.9734L23.2103 17.6576H18.8682L21.6313 0.171875Z" fill="#3362AB"/>
</svg>
