<svg width="49" height="30" viewBox="0 0 49 30" fill="none" xmlns="http://www.w3.org/2000/svg">
<path d="M24.6135 26.0528C27.564 23.2896 29.4275 19.3423 29.4275 15.0002C29.4275 10.5791 27.564 6.63173 24.6135 3.94752C21.9736 1.5791 18.5572 0.0791016 14.7526 0.0791016C6.59983 0.0791016 0 6.78963 0 15.0002C0 23.2896 6.59983 30.0002 14.7526 30.0002C18.5572 29.9212 21.9736 28.4212 24.6135 26.0528Z" fill="#3362AB"/>
<path d="M24.6133 26.0525C27.5638 23.2894 29.4273 19.342 29.4273 14.9999C29.4273 10.5788 27.5638 6.63148 24.6133 3.94727" fill="#3362AB"/>
<path d="M24.6133 26.0525C27.5638 23.2894 29.4273 19.342 29.4273 14.9999C29.4273 10.5788 27.5638 6.63148 24.6133 3.94727" stroke="#3362AB" stroke-width="0.3097"/>
<path d="M34.4742 0C30.6696 0 27.1756 1.5 24.6133 3.86842C24.0698 4.3421 23.6039 4.89473 23.138 5.44736H26.0885C26.4768 5.92105 26.865 6.47368 27.1756 7.02631H21.9734C21.6628 7.5 21.3522 8.05263 21.1193 8.60526H28.0297C28.2626 9.15789 28.4955 9.63157 28.6508 10.1842H20.4981C20.3428 10.7368 20.1875 11.2105 20.0322 11.7632H29.0391C29.272 12.7895 29.3496 13.8158 29.3496 14.921C29.3496 16.5789 29.1167 18.1579 28.5732 19.6579H20.4205C20.5757 20.2105 20.8087 20.7632 21.0416 21.2368H27.952C27.7191 21.7895 27.4085 22.3421 27.0979 22.8158H21.8957C22.2063 23.3684 22.5945 23.921 22.9827 24.3947H25.9333C25.4674 24.9474 25.0015 25.5 24.458 25.9737C27.0979 28.3421 30.5143 29.8421 34.3189 29.8421C42.4716 29.8421 48.9938 23.1316 48.9938 14.8421C49.2267 6.71053 42.6269 0 34.4742 0Z" fill="#C9191B"/>
<path d="M12.8895 18.6317H11.026L12.1131 12.7896L9.62843 18.6317H7.99788L7.6873 12.8685L6.60025 18.6317H4.96973L6.36733 11.0527H9.2402L9.39548 15.7896L11.4143 11.0527H14.3648L12.8895 18.6317Z" fill="white"/>
<path d="M33.387 18.6318C32.9211 18.7897 32.4553 18.8687 32.067 18.8687C31.1353 18.8687 30.5918 18.395 30.5918 17.5266C30.5918 17.3687 30.5918 17.1318 30.6694 16.9739L30.7471 16.3424L30.8247 15.8687L31.6788 11.1318H33.4646L33.2317 12.5529H34.1634L33.9305 14.0529H32.9988L32.5329 16.6582C32.5329 16.7371 32.5329 16.895 32.5329 16.895C32.5329 17.2108 32.7658 17.3687 33.1541 17.3687C33.387 17.3687 33.5423 17.3687 33.6199 17.2897L33.387 18.6318Z" fill="white"/>
<path d="M38.6675 12.5526C38.5122 12.4736 38.5122 12.4736 38.4345 12.4736C38.3569 12.4736 38.2793 12.4736 38.2793 12.4736C38.2016 12.4736 38.124 12.4736 38.0463 12.4736C37.4252 12.4736 37.037 12.7105 36.4158 13.4999L36.5711 12.5526H35.0958L34.0088 18.7105H35.8723C36.4934 14.921 36.804 14.2894 37.6581 14.2894C37.7357 14.2894 37.8134 14.2894 37.891 14.2894L38.124 14.3684L38.6675 12.5526Z" fill="white"/>
<path d="M26.0884 14.4472C26.0884 15.2366 26.5543 15.7893 27.4861 16.184C28.2625 16.4998 28.3401 16.5787 28.3401 16.8945C28.3401 17.2893 28.0296 17.4472 27.2531 17.4472C26.7096 17.4472 26.1661 17.3682 25.6226 17.2103L25.3896 18.6314H25.4673L25.7779 18.7103C25.8555 18.7103 26.0885 18.7893 26.2437 18.7893C26.7096 18.7893 27.0202 18.8682 27.2531 18.8682C29.1942 18.8682 30.126 18.2366 30.126 16.8156C30.126 15.9472 29.7378 15.4735 28.806 15.0787C28.0296 14.7629 27.9519 14.684 27.9519 14.3682C27.9519 14.0524 28.2625 13.8945 28.8837 13.8945C29.2719 13.8945 29.7378 13.8945 30.2036 13.9735L30.4366 12.5524C29.9707 12.4735 29.2719 12.3945 28.806 12.3945C26.7873 12.3945 26.0884 13.3419 26.0884 14.4472Z" fill="white"/>
<path d="M17.5482 15.9472C17.3153 15.9472 17.2377 15.9472 17.16 15.9472C16.1506 15.9472 15.6071 16.2629 15.6071 16.8945C15.6071 17.2893 15.8401 17.5261 16.2283 17.5261C16.9271 17.4472 17.4706 16.8156 17.5482 15.9472ZM18.8682 18.6314H17.3153L17.393 17.9998C16.9271 18.4735 16.3059 18.7103 15.4518 18.7103C14.4425 18.7103 13.8213 17.9998 13.8213 17.0524C13.8213 15.5524 14.986 14.684 17.0047 14.684C17.2377 14.684 17.4706 14.684 17.7812 14.763C17.8588 14.5261 17.8588 14.4472 17.8588 14.3682C17.8588 13.9735 17.5482 13.8156 16.6941 13.8156C16.1506 13.8156 15.6071 13.8945 15.2189 13.9735L14.986 14.0524L14.8307 14.1314L15.0636 12.7103C15.9954 12.4735 16.5389 12.3945 17.2377 12.3945C18.7906 12.3945 19.6447 13.0261 19.6447 14.2103C19.6447 14.5261 19.6447 14.763 19.4894 15.3945L19.1011 17.6051L19.0235 17.9998L18.9459 18.3156V18.5524L18.8682 18.6314Z" fill="white"/>
<path d="M23.9145 14.8418C23.9145 14.6839 23.9145 14.6049 23.9145 14.526C23.9145 14.0523 23.6039 13.7365 23.0604 13.7365C22.4392 13.7365 22.051 14.1312 21.8957 14.8418H23.9145ZM24.8462 18.5523C24.2251 18.7102 23.6039 18.7891 22.9828 18.7891C20.964 18.7891 19.877 17.8418 19.877 16.026C19.877 13.8944 21.1969 12.3154 23.0604 12.3154C24.5357 12.3154 25.5451 13.1839 25.5451 14.526C25.5451 14.9996 25.4674 15.3944 25.3121 16.026H21.6628C21.6628 16.1049 21.6628 16.1839 21.6628 16.1839C21.6628 16.8944 22.2063 17.2891 23.2933 17.2891C23.9145 17.2891 24.5357 17.1312 25.2345 16.8944L24.8462 18.5523Z" fill="white"/>
<path d="M42.4722 15.0787C42.4722 14.4472 42.2392 13.8156 41.4628 13.8156C40.531 13.8156 39.9875 14.9208 39.9875 15.9472C39.9875 16.8156 40.3757 17.3682 41.0746 17.3682C41.4628 17.3682 42.3169 16.8156 42.4722 15.8682C42.4722 15.6314 42.4722 15.3156 42.4722 15.0787ZM44.4133 15.8682C44.1027 17.9208 42.7051 18.8682 40.8416 18.8682C38.7452 18.8682 37.9688 17.6051 37.9688 16.0261C37.9688 13.8156 39.3663 12.3945 41.5404 12.3945C43.4815 12.3945 44.4133 13.5787 44.4133 15.1577C44.4909 15.4735 44.4909 15.4735 44.4133 15.8682Z" fill="white"/>
</svg>
