<svg width="65" height="18" viewBox="0 0 65 18" fill="none" xmlns="http://www.w3.org/2000/svg">
<path d="M58.3177 0H45.8037C46.5327 3.94839 50.542 7.66452 54.9159 7.66452H64.8785C65 7.31614 65 6.73548 65 6.3871C65 2.90323 61.9626 0 58.3177 0Z" fill="url(#paint0_linear_388_1711)"/>
<path d="M46.8975 8.36133V18H52.9722V12.8904H58.318C61.2339 12.8904 63.7853 10.9162 64.6358 8.36133H46.8975Z" fill="#4FAD50"/>
<path d="M25.5137 0V17.8839H30.8595C30.8595 17.8839 32.1959 17.8839 32.9249 16.6065C36.5698 9.75484 37.6632 7.66452 37.6632 7.66452H38.3922V17.8839H44.4669V0H39.1212C39.1212 0 37.7847 0.116136 37.0557 1.27743C34.0183 7.20001 32.3174 10.2194 32.3174 10.2194H31.5884V0H25.5137Z" fill="#4FAD50"/>
<path d="M0 18.0001V0.116211H6.07477C6.07477 0.116211 7.77572 0.116207 8.74768 2.67105C11.1776 9.40653 11.4206 10.3356 11.4206 10.3356C11.4206 10.3356 11.9065 8.70975 14.0935 2.67105C15.0654 0.116207 16.7664 0.116211 16.7664 0.116211H22.8411V18.0001H16.7664V8.36138H16.0374L12.6355 18.0001H9.96263L6.56078 8.36138H5.8318V18.0001H0Z" fill="#4FAD50"/>
<defs>
<linearGradient id="paint0_linear_388_1711" x1="45.7821" y1="3.88719" x2="64.9569" y2="3.88719" gradientUnits="userSpaceOnUse">
<stop stop-color="#27B1E6"/>
<stop offset="1" stop-color="#148ACA"/>
</linearGradient>
</defs>
</svg>
