<svg width="36" height="37" viewBox="0 0 36 37" fill="none" xmlns="http://www.w3.org/2000/svg">
<circle cx="18" cy="18.5" r="18" fill="#4A9BD6"/>
<path d="M8.41524 18.8367L12.5535 20.3798L14.1667 25.5702C14.2369 25.9209 14.6577 25.991 14.9383 25.7806L17.2529 23.8868C17.4633 23.6764 17.814 23.6764 18.0946 23.8868L22.2329 26.9028C22.5134 27.1133 22.9343 26.973 23.0044 26.6223L26.0906 11.8928C26.1607 11.5421 25.81 11.1914 25.4593 11.3317L8.41524 17.9249C7.9944 18.0652 7.9944 18.6964 8.41524 18.8367ZM13.9563 19.6083L22.0926 14.6283C22.2329 14.5582 22.3732 14.7686 22.2329 14.8387L15.5696 21.0812C15.3591 21.2916 15.1487 21.5722 15.1487 21.9229L14.9383 23.6063C14.9383 23.8167 14.5876 23.8868 14.5174 23.6063L13.6758 20.5201C13.4653 20.1694 13.6056 19.7485 13.9563 19.6083Z" fill="white"/>
</svg>
