<svg width="21" height="21" viewBox="0 0 21 21" fill="none" xmlns="http://www.w3.org/2000/svg">
<path d="M17.3333 18V16.3333C17.3333 15.4493 16.9821 14.6014 16.357 13.9763C15.7319 13.3512 14.8841 13 14 13H7.33333C6.44928 13 5.60143 13.3512 4.97631 13.9763C4.35119 14.6014 4 15.4493 4 16.3333V18" fill="#A50101"/>
<path d="M17.3333 18V16.3333C17.3333 15.4493 16.9821 14.6014 16.357 13.9763C15.7319 13.3512 14.8841 13 14 13H7.33333C6.44928 13 5.60143 13.3512 4.97631 13.9763C4.35119 14.6014 4 15.4493 4 16.3333V18H17.3333Z" stroke="#A50101" stroke-linecap="round" stroke-linejoin="round"/>
<path d="M10.6673 9.66667C12.5083 9.66667 14.0007 8.17428 14.0007 6.33333C14.0007 4.49238 12.5083 3 10.6673 3C8.82637 3 7.33398 4.49238 7.33398 6.33333C7.33398 8.17428 8.82637 9.66667 10.6673 9.66667Z" fill="#A50101" stroke="#A50101" stroke-linecap="round" stroke-linejoin="round"/>
</svg>
