<svg width="36" height="37" viewBox="0 0 36 37" fill="none" xmlns="http://www.w3.org/2000/svg">
<circle cx="18" cy="18.5" r="18" fill="#49AF5F"/>
<path d="M24.3659 12.125C22.6725 10.4375 20.4146 9.5 18.0314 9.5C13.0767 9.5 9.06272 13.5 9.06272 18.4375C9.06272 20 9.50174 21.5625 10.2544 22.875L9 27.5L13.7666 26.25C15.0836 26.9375 16.5261 27.3125 18.0314 27.3125C22.9861 27.3125 27 23.3125 27 18.375C26.9373 16.0625 26.0592 13.8125 24.3659 12.125ZM22.3589 21.625C22.1707 22.125 21.2927 22.625 20.8537 22.6875C20.4773 22.75 19.9756 22.75 19.4739 22.625C19.1603 22.5 18.7213 22.375 18.2195 22.125C15.9617 21.1875 14.5192 18.9375 14.3937 18.75C14.2683 18.625 13.453 17.5625 13.453 16.4375C13.453 15.3125 14.0174 14.8125 14.2056 14.5625C14.3937 14.3125 14.6446 14.3125 14.8328 14.3125C14.9582 14.3125 15.1463 14.3125 15.2718 14.3125C15.3972 14.3125 15.5854 14.25 15.7735 14.6875C15.9617 15.125 16.4007 16.25 16.4634 16.3125C16.5261 16.4375 16.5261 16.5625 16.4634 16.6875C16.4007 16.8125 16.338 16.9375 16.2125 17.0625C16.0871 17.1875 15.9617 17.375 15.899 17.4375C15.7735 17.5625 15.6481 17.6875 15.7735 17.875C15.899 18.125 16.338 18.8125 17.0279 19.4375C17.9059 20.1875 18.5958 20.4375 18.8467 20.5625C19.0976 20.6875 19.223 20.625 19.3484 20.5C19.4739 20.375 19.9129 19.875 20.0383 19.625C20.1638 19.375 20.3519 19.4375 20.5401 19.5C20.7282 19.5625 21.8571 20.125 22.0453 20.25C22.2962 20.375 22.4216 20.4375 22.4843 20.5C22.547 20.6875 22.547 21.125 22.3589 21.625Z" fill="white"/>
</svg>
