<svg width="28" height="28" viewBox="0 0 28 28" fill="none" xmlns="http://www.w3.org/2000/svg">
<circle cx="14" cy="14" r="14" fill="#E1E1E1"/>
<path d="M21.1669 17.28V19.28C21.1677 19.4657 21.1297 19.6494 21.0553 19.8195C20.9809 19.9897 20.8718 20.1424 20.735 20.2679C20.5982 20.3934 20.4367 20.489 20.2608 20.5485C20.0849 20.6079 19.8985 20.63 19.7136 20.6133C17.6622 20.3904 15.6916 19.6894 13.9603 18.5667C12.3495 17.5431 10.9838 16.1774 9.96028 14.5667C8.8336 12.8275 8.13244 10.8473 7.91361 8.78665C7.89695 8.60229 7.91886 8.41649 7.97795 8.24107C8.03703 8.06564 8.13199 7.90444 8.25679 7.76773C8.38159 7.63102 8.53348 7.52179 8.70281 7.447C8.87213 7.37221 9.05517 7.33349 9.24028 7.33332H11.2403C11.5638 7.33013 11.8775 7.4447 12.1228 7.65567C12.3681 7.86664 12.5283 8.15961 12.5736 8.47998C12.658 9.12003 12.8146 9.74847 13.0403 10.3533C13.13 10.5919 13.1494 10.8513 13.0962 11.1006C13.043 11.3499 12.9195 11.5787 12.7403 11.76L11.8936 12.6066C12.8427 14.2757 14.2246 15.6576 15.8936 16.6067L16.7403 15.76C16.9215 15.5807 17.1504 15.4572 17.3997 15.404C17.649 15.3509 17.9083 15.3703 18.1469 15.46C18.7518 15.6857 19.3802 15.8422 20.0203 15.9267C20.3441 15.9723 20.6399 16.1355 20.8513 16.385C21.0627 16.6345 21.1751 16.953 21.1669 17.28Z" fill="#A50101"/>
</svg>
